<svg width="37" height="36" viewBox="0 0 37 36" fill="#cdd9e5" xmlns="http://www.w3.org/2000/svg">
<path d="M18.5 0C8.28492 0 0 8.25687 0 18.4408C0 26.5886 5.30025 33.5008 12.6525 35.9396C13.5759 36.1102 13.875 35.5385 13.875 35.0529V31.6198C8.72892 32.7355 7.65746 29.4438 7.65746 29.4438C6.81571 27.3124 5.60242 26.7453 5.60242 26.7453C3.92354 25.6004 5.73037 25.625 5.73037 25.625C7.58808 25.7541 8.5655 27.526 8.5655 27.526C10.2151 30.3443 12.893 29.5299 13.949 29.0581C14.114 27.8671 14.5934 27.0527 15.1238 26.5932C11.0152 26.1245 6.69546 24.5432 6.69546 17.4788C6.69546 15.4642 7.4185 13.8198 8.60096 12.529C8.40979 12.0634 7.77617 10.187 8.78133 7.64832C8.78133 7.64832 10.3353 7.1535 13.8704 9.53851C15.3457 9.12974 16.9275 8.92535 18.5 8.91767C20.0725 8.92535 21.6558 9.12974 23.1342 9.53851C26.6662 7.1535 28.2171 7.64832 28.2171 7.64832C29.2238 10.1885 28.5902 12.0649 28.399 12.529C29.5861 13.8198 30.303 15.4657 30.303 17.4788C30.303 24.5616 25.9755 26.1214 21.8562 26.5778C22.5191 27.1495 23.125 28.2713 23.125 29.9924V35.0529C23.125 35.5431 23.421 36.1194 24.3599 35.9381C31.7059 33.4962 37 26.5855 37 18.4408C37 8.25687 28.7166 0 18.5 0Z"/>
</svg>
