<svg width="31" height="37" viewBox="0 0 31 37" fill="#0070ba" xmlns="http://www.w3.org/2000/svg">
<path d="M31 15.0482C31 15.8745 30.8992 16.7194 30.738 17.5565C29.4252 24.3691 24.9318 26.7232 19.1921 26.7232H18.3055C17.6034 26.7232 17.0067 27.2382 16.8982 27.9396L15.6535 35.7867C15.5435 36.4851 14.9467 37 14.2461 37H10.0053C9.40083 37 8.93893 36.4635 9.03193 35.8715L11.1802 22.1815L11.2763 22.0952H14.6166C22.7308 22.0952 27.8055 18.0591 29.2997 10.4278C30.5583 11.6827 31 13.32 31 15.0482ZM8.96528 21.6034C9.14508 20.33 9.67673 19.7888 11.112 19.7857L14.615 19.7827C21.7047 19.7827 25.7719 16.5606 27.0506 9.93142C28.2906 3.55817 23.7925 0 17.7026 0H6.31944C5.51809 0 4.83455 0.588917 4.71055 1.38904C1.13936 24.2597 0.107062 30.0748 0.00166272 31.8493C-0.0308872 32.4074 0.418611 32.8853 0.985909 32.8853H7.16884L8.96528 21.6034Z"/>
</svg>
