<svg width="53" height="53" viewBox="0 0 53 53" fill="none" xmlns="http://www.w3.org/2000/svg">
<path d="M8.8342 48.2129C18.9638 49.052 15.3355 38.2908 24.7077 38.1915L28.7666 41.579C29.778 53.8088 14.821 56.5361 8.8342 48.2129ZM39.8944 32.5006C43.0457 27.5561 52.8065 10.9715 52.8065 10.9715C53.5839 9.59575 51.857 8.16033 50.6512 9.17616C50.6512 9.17616 36.138 21.7946 31.8561 25.7939C28.4729 28.9562 28.4575 30.4005 27.3621 35.6143L31.0721 38.706C35.9901 36.6854 37.4056 36.4115 39.8944 32.5006ZM13.3966 41.0601C14.8674 38.5558 17.2568 34.4859 23.2171 33.8565C24.1755 29.2477 24.5575 26.569 28.8417 22.5675C31.8737 19.7364 39.7465 12.831 44.3464 8.81179C42.1381 3.93579 35.2017 -0.0723392 26.2867 0.000535799C11.6587 0.121994 -0.116177 12.0691 0.000865037 26.7037C0.0516567 33.1322 2.38807 39.0063 6.22837 43.5643C9.80145 44.5117 11.4754 44.3328 13.3966 41.0601ZM28.749 6.09112C31.1825 6.07787 33.1767 8.03666 33.201 10.4702C33.2098 12.906 31.2532 14.9068 28.8152 14.9222C26.375 14.9421 24.3809 12.9789 24.3676 10.5409C24.3389 8.09849 26.3021 6.11099 28.749 6.09112ZM15.5056 10.51C17.9392 10.4879 19.9399 12.4467 19.9487 14.8891C19.9752 17.3315 18.0054 19.3168 15.5762 19.3411C13.1338 19.3566 11.1397 17.3956 11.1242 14.951C11.1044 12.5152 13.0609 10.5255 15.5056 10.51ZM11.0823 23.7556C13.5247 23.7401 15.521 25.7033 15.5343 28.1391C15.5564 30.5771 13.5909 32.5735 11.1485 32.5889C8.70832 32.6066 6.72082 30.6456 6.70757 28.2054C6.68328 25.7652 8.6487 23.7799 11.0823 23.7556ZM33.2341 42.5971C33.2805 47.5415 31.267 50.581 29.5004 52.5L29.0004 53C30.0004 53 33.0004 53 33.0004 53C42.771 50.5902 48.791 42.4999 43.2555 35.4023C40.2234 39.9228 37.6596 40.7951 33.2341 42.5971Z" fill="#5B6886"/>
</svg>
