<svg width="53" height="53" viewBox="0 0 53 53" fill="none" xmlns="http://www.w3.org/2000/svg">
<path fill-rule="evenodd" clip-rule="evenodd" d="M42.1751 23.4922C33.6333 18.4197 19.5441 17.9538 11.3887 20.4293C10.0792 20.8268 8.69457 20.087 8.29928 18.7775C7.90178 17.4679 8.63937 16.0833 9.95112 15.6858C19.3122 12.8437 34.8722 13.3935 44.7059 19.2302C45.8829 19.9302 46.2694 21.4495 45.5715 22.6266C44.8737 23.8036 43.3522 24.1923 42.1751 23.4922ZM41.8969 31.0072C41.2962 31.9789 40.0264 32.2836 39.0547 31.6874C31.9329 27.3105 21.0745 26.0407 12.6475 28.5979C11.5566 28.9292 10.4016 28.313 10.0704 27.2221C9.74132 26.129 10.3574 24.9785 11.4484 24.645C21.0723 21.7256 33.037 23.1389 41.2167 28.1673C42.1884 28.7635 42.4931 30.0378 41.8969 31.0072ZM38.6528 38.2218C38.178 39.0036 37.16 39.2487 36.3827 38.7717C30.1596 34.969 22.3266 34.1099 13.1024 36.2167C12.2147 36.4198 11.3291 35.8633 11.1259 34.9756C10.9228 34.0856 11.4771 33.2001 12.367 32.9969C22.4613 30.6892 31.1202 31.683 38.1052 35.9517C38.8847 36.4265 39.1298 37.4445 38.6528 38.2218ZM26.5004 0C11.8657 0 0.000366211 11.8654 0.000366211 26.5C0.000366211 41.1368 11.8657 53 26.5004 53C41.1372 53 53.0004 41.1368 53.0004 26.5C53.0004 11.8654 41.1372 0 26.5004 0Z" fill="#5B6886"/>
</svg>
